<svg width="24" height="24" viewBox="0 0 24 24" fill="none" xmlns="http://www.w3.org/2000/svg">
<path d="M12 21.175L10.55 19.875C8.86667 18.3583 7.475 17.05 6.375 15.95C5.275 14.85 4.4 13.8625 3.75 12.9875C3.1 12.1125 2.64583 11.3083 2.3875 10.575C2.12917 9.84168 2 9.09168 2 8.32501C2 6.75835 2.525 5.45001 3.575 4.40001C4.625 3.35001 5.93333 2.82501 7.5 2.82501C8.36667 2.82501 9.19167 3.00835 9.975 3.37501C10.7583 3.74168 11.4333 4.25835 12 4.92501C12.5667 4.25835 13.2417 3.74168 14.025 3.37501C14.8083 3.00835 15.6333 2.82501 16.5 2.82501C18.0667 2.82501 19.375 3.35001 20.425 4.40001C21.475 5.45001 22 6.75835 22 8.32501C22 9.09168 21.8708 9.84168 21.6125 10.575C21.3542 11.3083 20.9 12.1125 20.25 12.9875C19.6 13.8625 18.725 14.85 17.625 15.95C16.525 17.05 15.1333 18.3583 13.45 19.875L12 21.175ZM12 18.475C13.6 17.0417 14.9167 15.8125 15.95 14.7875C16.9833 13.7625 17.8 12.8708 18.4 12.1125C19 11.3542 19.4167 10.6792 19.65 10.0875C19.8833 9.49585 20 8.90835 20 8.32501C20 7.32501 19.6667 6.49168 19 5.82501C18.3333 5.15835 17.5 4.82501 16.5 4.82501C15.7167 4.82501 14.9917 5.04585 14.325 5.48751C13.6583 5.92918 13.2 6.49168 12.95 7.17501H11.05C10.8 6.49168 10.3417 5.92918 9.675 5.48751C9.00833 5.04585 8.28333 4.82501 7.5 4.82501C6.5 4.82501 5.66667 5.15835 5 5.82501C4.33333 6.49168 4 7.32501 4 8.32501C4 8.90835 4.11667 9.49585 4.35 10.0875C4.58333 10.6792 5 11.3542 5.6 12.1125C6.2 12.8708 7.01667 13.7625 8.05 14.7875C9.08333 15.8125 10.4 17.0417 12 18.475Z" fill="#F6F6F6"/>
</svg>
