<svg width="16" height="16" viewBox="0 0 16 16" fill="none" xmlns="http://www.w3.org/2000/svg">
<path d="M8.00004 14.1167L7.03337 13.25C5.91115 12.2389 4.98337 11.3667 4.25004 10.6333C3.51671 9.90001 2.93337 9.24168 2.50004 8.65835C2.06671 8.07501 1.76393 7.5389 1.59171 7.05001C1.41949 6.56112 1.33337 6.06112 1.33337 5.55001C1.33337 4.50557 1.68337 3.63335 2.38337 2.93335C3.08337 2.23335 3.9556 1.88335 5.00004 1.88335C5.57782 1.88335 6.12782 2.00557 6.65004 2.25001C7.17226 2.49446 7.62226 2.8389 8.00004 3.28335C8.37782 2.8389 8.82782 2.49446 9.35004 2.25001C9.87226 2.00557 10.4223 1.88335 11 1.88335C12.0445 1.88335 12.9167 2.23335 13.6167 2.93335C14.3167 3.63335 14.6667 4.50557 14.6667 5.55001C14.6667 6.06112 14.5806 6.56112 14.4084 7.05001C14.2362 7.5389 13.9334 8.07501 13.5 8.65835C13.0667 9.24168 12.4834 9.90001 11.75 10.6333C11.0167 11.3667 10.0889 12.2389 8.96671 13.25L8.00004 14.1167Z" fill="#FF584E"/>
</svg>
