<svg width="48" height="48" viewBox="0 0 48 48" fill="none" xmlns="http://www.w3.org/2000/svg">
<rect width="48" height="48" rx="24" fill="#343434"/>
<path d="M24.0002 30.1167L23.0335 29.25C21.9113 28.2389 20.9835 27.3667 20.2502 26.6333C19.5168 25.9 18.9335 25.2417 18.5002 24.6583C18.0668 24.075 17.7641 23.5389 17.5918 23.05C17.4196 22.5611 17.3335 22.0611 17.3335 21.55C17.3335 20.5056 17.6835 19.6333 18.3835 18.9333C19.0835 18.2333 19.9557 17.8833 21.0002 17.8833C21.5779 17.8833 22.1279 18.0056 22.6502 18.25C23.1724 18.4944 23.6224 18.8389 24.0002 19.2833C24.3779 18.8389 24.8279 18.4944 25.3502 18.25C25.8724 18.0056 26.4224 17.8833 27.0002 17.8833C28.0446 17.8833 28.9168 18.2333 29.6168 18.9333C30.3168 19.6333 30.6668 20.5056 30.6668 21.55C30.6668 22.0611 30.5807 22.5611 30.4085 23.05C30.2363 23.5389 29.9335 24.075 29.5002 24.6583C29.0668 25.2417 28.4835 25.9 27.7502 26.6333C27.0168 27.3667 26.0891 28.2389 24.9668 29.25L24.0002 30.1167Z" fill="#FF584E"/>
</svg>
