<svg width="16" height="16" viewBox="0 0 16 16" fill="none" xmlns="http://www.w3.org/2000/svg">
<path d="M3.33333 13.3333C2.96667 13.3333 2.65278 13.2028 2.39167 12.9417C2.13056 12.6805 2 12.3667 2 12V3.99999C2 3.63332 2.13056 3.31943 2.39167 3.05832C2.65278 2.79721 2.96667 2.66666 3.33333 2.66666H12.6667C13.0333 2.66666 13.3472 2.79721 13.6083 3.05832C13.8694 3.31943 14 3.63332 14 3.99999V12C14 12.3667 13.8694 12.6805 13.6083 12.9417C13.3472 13.2028 13.0333 13.3333 12.6667 13.3333H3.33333ZM4.66667 9.99999H6.66667C6.85556 9.99999 7.01389 9.9361 7.14167 9.80832C7.26944 9.68055 7.33333 9.52221 7.33333 9.33332V8.66666H6.33333V8.99999H5V6.99999H6.33333V7.33332H7.33333V6.66666C7.33333 6.47777 7.26944 6.31943 7.14167 6.19166C7.01389 6.06388 6.85556 5.99999 6.66667 5.99999H4.66667C4.47778 5.99999 4.31944 6.06388 4.19167 6.19166C4.06389 6.31943 4 6.47777 4 6.66666V9.33332C4 9.52221 4.06389 9.68055 4.19167 9.80832C4.31944 9.9361 4.47778 9.99999 4.66667 9.99999ZM9.33333 9.99999H11.3333C11.5222 9.99999 11.6806 9.9361 11.8083 9.80832C11.9361 9.68055 12 9.52221 12 9.33332V8.66666H11V8.99999H9.66667V6.99999H11V7.33332H12V6.66666C12 6.47777 11.9361 6.31943 11.8083 6.19166C11.6806 6.06388 11.5222 5.99999 11.3333 5.99999H9.33333C9.14444 5.99999 8.98611 6.06388 8.85833 6.19166C8.73056 6.31943 8.66667 6.47777 8.66667 6.66666V9.33332C8.66667 9.52221 8.73056 9.68055 8.85833 9.80832C8.98611 9.9361 9.14444 9.99999 9.33333 9.99999Z" fill="black"/>
</svg>
