<svg width="48" height="48" viewBox="0 0 48 48" fill="none" xmlns="http://www.w3.org/2000/svg">
<rect width="48" height="48" rx="24" fill="#343434"/>
<path d="M27.0005 18.3833C27.8054 18.3834 28.4747 18.6152 29.0317 19.0757L29.2632 19.2867C29.8638 19.8873 30.1665 20.6304 30.1665 21.5503C30.1665 21.8905 30.1239 22.2251 30.0376 22.5552L29.937 22.8843C29.8242 23.2045 29.6421 23.561 29.3833 23.9546L29.0991 24.3599C28.7886 24.7779 28.3929 25.2426 27.9097 25.7534L27.397 26.2798C26.6721 27.0047 25.7512 27.8703 24.6333 28.8775L23.9995 29.4449L23.3677 28.8775C22.5292 28.122 21.8013 27.4467 21.1841 26.8501L20.604 26.2798C20.062 25.7378 19.6083 25.2424 19.2407 24.7935L18.9019 24.3599C18.5393 23.8718 18.2842 23.435 18.1255 23.0474L18.063 22.8843C17.9093 22.4481 17.8335 22.0039 17.8335 21.5503C17.8335 20.7454 18.0656 20.0761 18.5259 19.5191L18.7368 19.2867C19.3375 18.686 20.0805 18.3833 21.0005 18.3833C21.4419 18.3834 21.8627 18.4643 22.2661 18.6275L22.438 18.7027C22.8945 18.9164 23.2877 19.2165 23.6196 19.607L24.0005 20.0552L24.3813 19.607C24.6718 19.2653 25.0085 18.9926 25.394 18.7867L25.562 18.7027C26.0177 18.4893 26.4958 18.3833 27.0005 18.3833Z" stroke="white"/>
</svg>
